<svg width="48" height="48" viewBox="0 0 48 48" fill="none" xmlns="http://www.w3.org/2000/svg">
<g clip-path="url(#clip0_109_6025)">
<path d="M13.7148 27.4285L20.7434 33.0514C20.9322 33.2068 21.1532 33.3183 21.3904 33.3776C21.6277 33.4369 21.8751 33.4426 22.1148 33.3942C22.3568 33.3488 22.5862 33.2518 22.7874 33.1099C22.9885 32.9679 23.1567 32.7842 23.2806 32.5714L34.2863 13.7142" stroke="#144A3A" stroke-width="3.42857" stroke-linecap="round" stroke-linejoin="round"/>
<path d="M24.0006 46.2857C36.3086 46.2857 46.2863 36.308 46.2863 23.9999C46.2863 11.6919 36.3086 1.71423 24.0006 1.71423C11.6925 1.71423 1.71484 11.6919 1.71484 23.9999C1.71484 36.308 11.6925 46.2857 24.0006 46.2857Z" stroke="#144A3A" stroke-width="3.42857" stroke-linecap="round" stroke-linejoin="round"/>
</g>
<defs>
<clipPath id="clip0_109_6025">
<rect width="48" height="48" fill="white"/>
</clipPath>
</defs>
</svg>
