<svg width="355" height="352" viewBox="0 0 355 352" fill="none" xmlns="http://www.w3.org/2000/svg">
<path opacity="0.08" fill-rule="evenodd" clip-rule="evenodd" d="M0.5 14.8098C0.5 6.63055 7.13055 0 15.3098 0H107.862C108.564 0 109.26 0.0498182 109.947 0.147506C110.367 0.0509954 110.803 0 111.252 0C113.187 0 114.901 0.948414 115.953 2.40576C116.788 2.95002 117.571 3.58099 118.289 4.29283L150.654 36.3812C150.957 36.6816 151.246 36.9937 151.519 37.3165C153.415 38.2692 154.716 40.2315 154.716 42.4976C154.716 42.8289 154.688 43.1537 154.634 43.4698C154.9 44.584 155.037 45.7339 155.037 46.8981V183.19C155.037 191.369 148.406 198 140.227 198H15.3098C7.13056 198 0.5 191.369 0.5 183.19V14.8098ZM15.3098 11.5902H105.457V36.7024C105.457 43.1036 110.646 48.2927 117.047 48.2927H143.446V183.19C143.446 184.968 142.005 186.41 140.227 186.41H15.3098C13.5317 186.41 12.0902 184.968 12.0902 183.19V14.8098C12.0902 13.0317 13.5317 11.5902 15.3098 11.5902ZM117.047 19.383L134.516 36.7024H117.047V19.383ZM41.7092 64.0682C38.5086 64.0682 35.9141 66.6628 35.9141 69.8634C35.9141 73.0639 38.5086 75.6585 41.7092 75.6585H114.47C117.671 75.6585 120.265 73.0639 120.265 69.8634C120.265 66.6628 117.671 64.0682 114.47 64.0682H41.7092ZM36.2363 88.2147C36.2363 85.0141 38.8309 82.4196 42.0315 82.4196H77.4461C80.6466 82.4196 83.2412 85.0141 83.2412 88.2147C83.2412 91.4152 80.6466 94.0098 77.4461 94.0098H42.0315C38.8309 94.0098 36.2363 91.4152 36.2363 88.2147ZM41.7092 100.771C38.5086 100.771 35.9141 103.365 35.9141 106.566C35.9141 109.766 38.5086 112.361 41.7092 112.361H114.47C117.671 112.361 120.265 109.766 120.265 106.566C120.265 103.365 117.671 100.771 114.47 100.771H41.7092ZM36.2363 124.917C36.2363 121.717 38.8309 119.122 42.0315 119.122H77.4461C80.6466 119.122 83.2412 121.717 83.2412 124.917C83.2412 128.118 80.6466 130.712 77.4461 130.712H42.0315C38.8309 130.712 36.2363 128.118 36.2363 124.917ZM41.7092 137.473C38.5086 137.473 35.9141 140.068 35.9141 143.268C35.9141 146.469 38.5086 149.063 41.7092 149.063H114.47C117.671 149.063 120.265 146.469 120.265 143.268C120.265 140.068 117.671 137.473 114.47 137.473H41.7092Z" fill="url(#paint0_linear_17_3859)"/>
<path opacity="0.14" fill-rule="evenodd" clip-rule="evenodd" d="M115 67C115 54.2975 125.297 44 138 44H281.736C282.826 44 283.908 44.0773 284.974 44.229C285.625 44.0792 286.303 44 287 44C290.004 44 292.665 45.4721 294.3 47.7345C295.597 48.5801 296.814 49.5606 297.93 50.6669L348.194 100.501C348.664 100.968 349.113 101.453 349.539 101.955C352.481 103.435 354.5 106.482 354.5 110C354.5 110.513 354.457 111.017 354.374 111.506C354.787 113.238 355 115.025 355 116.834V328.5C355 341.203 344.703 351.5 332 351.5H138C125.297 351.5 115 341.203 115 328.5V67ZM138 62H278V101C278 110.941 286.059 119 296 119H337V328.5C337 331.261 334.761 333.5 332 333.5H138C135.239 333.5 133 331.261 133 328.5V67C133 64.2386 135.239 62 138 62ZM296 74.101L323.131 101H296V74.101ZM179 143.5C174.029 143.5 170 147.529 170 152.5C170 157.471 174.029 161.5 179 161.5H292C296.971 161.5 301 157.471 301 152.5C301 147.529 296.971 143.5 292 143.5H179ZM170.5 181C170.5 176.029 174.529 172 179.5 172H234.5C239.471 172 243.5 176.029 243.5 181C243.5 185.971 239.471 190 234.5 190H179.5C174.529 190 170.5 185.971 170.5 181ZM179 200.5C174.029 200.5 170 204.529 170 209.5C170 214.471 174.029 218.5 179 218.5H292C296.971 218.5 301 214.471 301 209.5C301 204.529 296.971 200.5 292 200.5H179ZM170.5 238C170.5 233.029 174.529 229 179.5 229H234.5C239.471 229 243.5 233.029 243.5 238C243.5 242.971 239.471 247 234.5 247H179.5C174.529 247 170.5 242.971 170.5 238ZM179 257.5C174.029 257.5 170 261.529 170 266.5C170 271.471 174.029 275.5 179 275.5H292C296.971 275.5 301 271.471 301 266.5C301 261.529 296.971 257.5 292 257.5H179Z" fill="url(#paint1_linear_17_3859)"/>
<defs>
<linearGradient id="paint0_linear_17_3859" x1="77.7683" y1="0" x2="77.7683" y2="156.213" gradientUnits="userSpaceOnUse">
<stop stop-color="#144A3A"/>
<stop offset="1" stop-color="#144A3A" stop-opacity="0"/>
</linearGradient>
<linearGradient id="paint1_linear_17_3859" x1="235" y1="44" x2="235" y2="286.603" gradientUnits="userSpaceOnUse">
<stop stop-color="#144A3A"/>
<stop offset="1" stop-color="#144A3A"/>
</linearGradient>
</defs>
</svg>
