<svg width="40" height="40" viewBox="0 0 40 40" fill="none" xmlns="http://www.w3.org/2000/svg">
<circle cx="20" cy="20" r="20" fill="url(#paint0_linear_21_718)"/>
<path d="M16.3346 29.1667C15.6867 29.1667 15.7968 28.922 15.5733 28.3051L13.668 22.0343L28.3346 13.3333" fill="#C8DAEA"/>
<path d="M16.332 29.1667C16.832 29.1667 17.0529 28.938 17.332 28.6667L19.9987 26.0737L16.6724 24.0678" fill="#A9C9DD"/>
<path d="M16.6725 24.0683L24.7325 30.0232C25.6523 30.5307 26.3161 30.2679 26.5452 29.1693L29.826 13.7088C30.1619 12.3621 29.3127 11.7513 28.4328 12.1507L9.16782 19.5792C7.8528 20.1067 7.86047 20.8403 8.92812 21.1672L13.8719 22.7103L25.3174 15.4894C25.8578 15.1618 26.3537 15.3379 25.9466 15.6992" fill="url(#paint1_linear_21_718)"/>
<defs>
<linearGradient id="paint0_linear_21_718" x1="15.002" y1="1.668" x2="5.002" y2="25" gradientUnits="userSpaceOnUse">
<stop stop-color="#37AEE2"/>
<stop offset="1" stop-color="#1E96C8"/>
</linearGradient>
<linearGradient id="paint1_linear_21_718" x1="17.4956" y1="21.2285" x2="19.6325" y2="28.141" gradientUnits="userSpaceOnUse">
<stop stop-color="#EFF7FC"/>
<stop offset="1" stop-color="white"/>
</linearGradient>
</defs>
</svg>
