<svg width="40" height="40" viewBox="0 0 40 40" fill="none" xmlns="http://www.w3.org/2000/svg">
<path d="M0 20C0 8.9543 8.9543 0 20 0C31.0457 0 40 8.9543 40 20C40 31.0457 31.0457 40 20 40C8.9543 40 0 31.0457 0 20Z" fill="#FF0000"/>
<path d="M30.2195 15.061C29.9742 14.1185 29.2513 13.3763 28.3334 13.1244C26.6698 12.6667 19.9987 12.6667 19.9987 12.6667C19.9987 12.6667 13.3275 12.6667 11.6639 13.1244C10.746 13.3763 10.0231 14.1185 9.77773 15.061C9.33203 16.7692 9.33203 20.3333 9.33203 20.3333C9.33203 20.3333 9.33203 23.8973 9.77773 25.6056C10.0231 26.5482 10.746 27.2903 11.6639 27.5423C13.3275 28 19.9987 28 19.9987 28C19.9987 28 26.6698 28 28.3334 27.5423C29.2513 27.2903 29.9742 26.5482 30.2195 25.6056C30.6654 23.8973 30.6654 20.3333 30.6654 20.3333C30.6654 20.3333 30.6654 16.7692 30.2195 15.061Z" fill="white"/>
<path d="M18 24V17.3333L23.3333 20.6668L18 24Z" fill="#FF0000"/>
</svg>
