<svg width="41" height="41" viewBox="0 0 41 41" fill="none" xmlns="http://www.w3.org/2000/svg">
<path d="M0.214844 20.4045C0.214844 9.35885 9.16915 0.404541 20.2148 0.404541C31.2605 0.404541 40.2148 9.35885 40.2148 20.4045C40.2148 31.4502 31.2605 40.4045 20.2148 40.4045C9.16915 40.4045 0.214844 31.4502 0.214844 20.4045Z" fill="#4C6C91"/>
<path d="M21.2598 26.968C21.2598 26.968 21.6448 26.926 21.842 26.7181C22.0225 26.5276 22.0162 26.1681 22.0162 26.1681C22.0162 26.1681 21.9922 24.4894 22.7863 24.2416C23.5688 23.9978 24.5736 25.8649 25.64 26.5829C26.4455 27.1258 27.057 27.0069 27.057 27.0069L29.9065 26.968C29.9065 26.968 31.3965 26.8779 30.6901 25.7277C30.6317 25.6335 30.278 24.8766 28.572 23.3218C26.7846 21.6944 27.0246 21.9576 29.1761 19.142C30.4867 17.4275 31.0105 16.3807 30.8466 15.9332C30.6912 15.505 29.7271 15.6187 29.7271 15.6187L26.5196 15.6382C26.5196 15.6382 26.2817 15.6064 26.1054 15.7099C25.9332 15.8113 25.8216 16.0479 25.8216 16.0479C25.8216 16.0479 25.3145 17.3742 24.6373 18.5029C23.2089 20.8832 22.6381 21.0092 22.4044 20.8617C21.8608 20.5165 21.9964 19.4769 21.9964 18.7385C21.9964 16.4309 22.3533 15.4692 21.3025 15.2203C20.954 15.1374 20.6974 15.0831 19.8052 15.0739C18.6606 15.0626 17.6923 15.0779 17.1435 15.3412C16.7783 15.5163 16.4966 15.9076 16.6687 15.9301C16.8806 15.9577 17.3605 16.0571 17.6151 16.3971C17.9438 16.8365 17.9323 17.8218 17.9323 17.8218C17.9323 17.8218 18.1212 20.538 17.4909 20.875C17.059 21.1065 16.4663 20.6343 15.1923 18.4742C14.5402 17.3681 14.0477 16.1452 14.0477 16.1452C14.0477 16.1452 13.9527 15.9168 13.7827 15.7939C13.5771 15.6454 13.2902 15.5993 13.2902 15.5993L10.2424 15.6187C10.2424 15.6187 9.78429 15.631 9.6163 15.8266C9.46709 15.9997 9.60482 16.3592 9.60482 16.3592C9.60482 16.3592 11.9911 21.8398 14.6936 24.6021C17.1717 27.1339 19.9847 26.968 19.9847 26.968H21.2598Z" fill="white"/>
</svg>
