<svg width="12" height="17" viewBox="0 0 12 17" fill="none" xmlns="http://www.w3.org/2000/svg">
<path d="M11.1412 6.14286C11.1412 8.98857 5.99833 15.8571 5.99833 15.8571C5.99833 15.8571 0.855469 8.98857 0.855469 6.14286C0.855469 4.77889 1.3973 3.47078 2.36178 2.50631C3.32625 1.54184 4.63436 1 5.99833 1C7.3623 1 8.6704 1.54184 9.63487 2.50631C10.5993 3.47078 11.1412 4.77889 11.1412 6.14286Z" stroke="#144A3A" stroke-width="1.5" stroke-linecap="round" stroke-linejoin="round"/>
<path d="M5.99749 7.85728C6.94426 7.85728 7.71177 7.08977 7.71177 6.143C7.71177 5.19622 6.94426 4.42871 5.99749 4.42871C5.05072 4.42871 4.2832 5.19622 4.2832 6.143C4.2832 7.08977 5.05072 7.85728 5.99749 7.85728Z" stroke="#144A3A" stroke-width="1.5" stroke-linecap="round" stroke-linejoin="round"/>
</svg>
