<svg width="58" height="52" viewBox="0 0 58 52" fill="none" xmlns="http://www.w3.org/2000/svg">
<path d="M28.0276 32.5287H32.9047L31.998 20.6416C31.9272 19.7133 31.2292 19 30.3919 19H20.9737C20.1363 19 19.4384 19.7133 19.3676 20.6416L18.4609 32.5287H23.2991" stroke="#144A3A" stroke-width="1.79688" stroke-miterlimit="10" stroke-linecap="round" stroke-linejoin="round"/>
<path d="M23.2976 32.5286H18.6119C17.7217 32.5286 17 33.2502 17 34.1404V35.3618C17 35.6878 17.2643 35.9522 17.5903 35.9522H33.7722C34.0982 35.9522 34.3625 35.6878 34.3625 35.3618V34.1404C34.3625 33.2502 33.6409 32.5286 32.7506 32.5286H28.026" stroke="#144A3A" stroke-width="1.79688" stroke-miterlimit="10" stroke-linecap="round" stroke-linejoin="round"/>
<path d="M32.9057 38.3798H18.4609V35.9521H32.9047L32.9057 38.3798Z" stroke="#144A3A" stroke-width="1.79688" stroke-miterlimit="10" stroke-linecap="round" stroke-linejoin="round"/>
<path d="M18.4609 38.3799V45.4375H20.3391L21.2611 38.3799H18.4609Z" stroke="#144A3A" stroke-width="1.79688" stroke-miterlimit="10" stroke-linecap="round" stroke-linejoin="round"/>
<path d="M32.9056 38.3799V45.4375H31.0274L30.1055 38.3799H32.9056Z" stroke="#144A3A" stroke-width="1.79688" stroke-miterlimit="10" stroke-linecap="round" stroke-linejoin="round"/>
<path d="M11.5 0V52" stroke="#144A3A" stroke-width="2" stroke-linejoin="round"/>
<path d="M55 51H10" stroke="#144A3A" stroke-width="2" stroke-linecap="round" stroke-linejoin="round"/>
<path d="M1 1L11 1" stroke="#144A3A" stroke-width="2" stroke-linecap="round" stroke-linejoin="round"/>
<path d="M28 1L38 1" stroke="#144A3A" stroke-width="2" stroke-linecap="round" stroke-linejoin="round"/>
<path d="M7 6H10.5" stroke="#144A3A" stroke-width="2" stroke-linecap="round" stroke-linejoin="round"/>
<path d="M7 11H10.5" stroke="#144A3A" stroke-width="2" stroke-linecap="round" stroke-linejoin="round"/>
<path d="M7 16H10.5" stroke="#144A3A" stroke-width="2" stroke-linecap="round" stroke-linejoin="round"/>
<path d="M7 21H10.5" stroke="#144A3A" stroke-width="2" stroke-linecap="round" stroke-linejoin="round"/>
<path d="M1 26L11 26" stroke="#144A3A" stroke-width="2" stroke-linecap="round" stroke-linejoin="round"/>
<path d="M7 31H10.5" stroke="#144A3A" stroke-width="2" stroke-linecap="round" stroke-linejoin="round"/>
<path d="M7 36H10.5" stroke="#144A3A" stroke-width="2" stroke-linecap="round" stroke-linejoin="round"/>
<path d="M7 41H10.5" stroke="#144A3A" stroke-width="2" stroke-linecap="round" stroke-linejoin="round"/>
<path d="M7 46H10.5" stroke="#144A3A" stroke-width="2" stroke-linecap="round" stroke-linejoin="round"/>
<path d="M1 51L11 51" stroke="#144A3A" stroke-width="2" stroke-linecap="round" stroke-linejoin="round"/>
<path d="M49.6933 24.7058H56.6484" stroke="#144A3A" stroke-width="2" stroke-linecap="round" stroke-linejoin="round"/>
<path d="M50.3069 29.199H56.6484" stroke="#144A3A" stroke-width="2" stroke-linecap="round" stroke-linejoin="round"/>
<path d="M48.8664 1C48.5352 4.95095 49.0983 15.2079 54 24.6283" stroke="#144A3A" stroke-width="2" stroke-linecap="round" stroke-linejoin="round"/>
<path d="M40.9188 1C41.3328 13.705 45.6383 18.1983 50.9375 24.6283" stroke="#144A3A" stroke-width="2" stroke-linecap="round" stroke-linejoin="round"/>
<path d="M49.8222 24.7072C35.3338 19.4679 32.6006 6.72293 33.045 1.00537H56.8164V46C55.3539 45.9933 51.6526 45.7778 48.5479 44.9688C45.4432 44.1599 43.9137 43.4367 43.5371 43.1762C46.227 41.5137 51.2498 35.4922 49.8222 24.7072Z" stroke="#144A3A" stroke-width="2" stroke-linecap="round" stroke-linejoin="round"/>
</svg>
