<svg width="25" height="8" viewBox="0 0 25 8" fill="none" xmlns="http://www.w3.org/2000/svg">
<path d="M1.09567 3.64645C0.900403 3.84171 0.900403 4.15829 1.09567 4.35355L4.27765 7.53553C4.47291 7.7308 4.78949 7.7308 4.98475 7.53553C5.18001 7.34027 5.18001 7.02369 4.98475 6.82843L2.15633 4L4.98475 1.17157C5.18002 0.976311 5.18002 0.659729 4.98475 0.464466C4.78949 0.269204 4.47291 0.269204 4.27765 0.464466L1.09567 3.64645ZM24.3931 4.5C24.6692 4.5 24.8931 4.27614 24.8931 4C24.8931 3.72386 24.6692 3.5 24.3931 3.5L24.3931 4.5ZM1.44922 4.5L24.3931 4.5L24.3931 3.5L1.44922 3.5L1.44922 4.5Z" fill="#666666"/>
</svg>
