<svg width="32" height="33" viewBox="0 0 32 33" fill="none" xmlns="http://www.w3.org/2000/svg">
<path d="M16 28.5476C13.2959 25.5704 9.62858 23.642 5.64311 23.1015C5.18947 23.0513 4.77051 22.8348 4.46708 22.4939C4.16365 22.153 3.99727 21.7117 4.00003 21.2553V6.39378C4.00002 6.12712 4.05777 5.86362 4.16931 5.62141C4.28085 5.37921 4.44354 5.16403 4.64619 4.99071C4.84526 4.82053 5.07827 4.69466 5.32972 4.62145C5.58118 4.54824 5.84534 4.52937 6.10465 4.56609C9.91565 5.1986 13.402 7.09786 16 9.95686V28.5476Z" stroke="#144A3A" stroke-width="1.5" stroke-linecap="round" stroke-linejoin="round"/>
<path d="M16 28.5476C18.7042 25.5704 22.3715 23.642 26.3569 23.1015C26.8106 23.0513 27.2295 22.8348 27.5329 22.4939C27.8364 22.153 28.0028 21.7117 28 21.2553V6.39378C28 6.12712 27.9423 5.86362 27.8307 5.62141C27.7192 5.37921 27.5565 5.16403 27.3538 4.99071C27.1548 4.82053 26.9218 4.69466 26.6703 4.62145C26.4188 4.54824 26.1547 4.52937 25.8954 4.56609C22.0844 5.1986 18.5981 7.09786 16 9.95686V28.5476Z" stroke="#144A3A" stroke-width="1.5" stroke-linecap="round" stroke-linejoin="round"/>
</svg>
