<svg width="20" height="20" viewBox="0 0 20 20" fill="none" xmlns="http://www.w3.org/2000/svg">
<path d="M1.0957 10.488C1.0957 5.51747 5.12514 1.48804 10.0957 1.48804C15.0663 1.48804 19.0957 5.51747 19.0957 10.488C19.0957 15.4586 15.0663 19.488 10.0957 19.488C5.12514 19.488 1.0957 15.4586 1.0957 10.488Z" stroke="#144A3A"/>
<path d="M10.5657 13.4417C10.5657 13.4417 10.739 13.4228 10.8277 13.3292C10.909 13.2435 10.9061 13.0817 10.9061 13.0817C10.9061 13.0817 10.8953 12.3263 11.2527 12.2148C11.6048 12.1051 12.057 12.9453 12.5368 13.2684C12.8993 13.5126 13.1745 13.4592 13.1745 13.4592L14.4568 13.4417C14.4568 13.4417 15.1273 13.4011 14.8094 12.8835C14.7831 12.8411 14.6239 12.5005 13.8562 11.8009C13.0519 11.0685 13.1599 11.187 14.1281 9.91996C14.7178 9.14843 14.9535 8.67739 14.8798 8.47598C14.8099 8.28332 14.376 8.33448 14.376 8.33448L12.9327 8.34324C12.9327 8.34324 12.8256 8.32895 12.7462 8.3755C12.6688 8.42113 12.6185 8.5276 12.6185 8.5276C12.6185 8.5276 12.3903 9.12446 12.0856 9.63237C11.4428 10.7035 11.186 10.7602 11.0808 10.6938C10.8362 10.5385 10.8972 10.0707 10.8972 9.73837C10.8972 8.69997 11.0578 8.26719 10.585 8.1552C10.4281 8.11786 10.3126 8.09344 9.91119 8.08929C9.39611 8.08422 8.96038 8.09113 8.7134 8.20958C8.54906 8.28839 8.42229 8.46446 8.49976 8.4746C8.59508 8.48704 8.81106 8.53175 8.92563 8.68476C9.07353 8.88249 9.06837 9.32587 9.06837 9.32587C9.06837 9.32587 9.15335 10.5482 8.86976 10.6998C8.67537 10.804 8.40867 10.5915 7.83537 9.61946C7.54191 9.12169 7.32028 8.57138 7.32028 8.57138C7.32028 8.57138 7.27756 8.4686 7.20102 8.4133C7.10852 8.34647 6.9794 8.32573 6.9794 8.32573L5.60789 8.33448C5.60789 8.33448 5.40176 8.34001 5.32616 8.42805C5.25902 8.50594 5.321 8.66771 5.321 8.66771C5.321 8.66771 6.39483 11.134 7.61093 12.377C8.72608 13.5163 9.99195 13.4417 9.99195 13.4417H10.5657Z" fill="#144A3A"/>
</svg>
